<mxfile host="app.diagrams.net" agent="Mozilla/5.0 (Macintosh; Intel Mac OS X 10_15_7) AppleWebKit/537.36 (KHTML, like Gecko) Chrome/130.0.0.0 Safari/537.36" version="24.8.3">
  <diagram name="Page-1" id="5f0bae14-7c28-e335-631c-24af17079c00">
    <mxGraphModel dx="984" dy="698" grid="1" gridSize="10" guides="1" tooltips="1" connect="1" arrows="1" fold="1" page="1" pageScale="1" pageWidth="1100" pageHeight="850" background="none" math="0" shadow="0">
      <root>
        <mxCell id="0" />
        <mxCell id="1" parent="0" />
        <mxCell id="kLMd2919VFUMPng3lsWd-1" value="Game-Context" style="swimlane;whiteSpace=wrap;html=1;" parent="1" vertex="1">
          <mxGeometry x="280" y="290" width="850" height="510" as="geometry">
            <mxRectangle x="280" y="290" width="120" height="30" as="alternateBounds" />
          </mxGeometry>
        </mxCell>
        <mxCell id="kLMd2919VFUMPng3lsWd-13" value="&lt;span style=&quot;font-size: 5px;&quot;&gt;HTTP&lt;/span&gt;" style="ellipse;whiteSpace=wrap;html=1;aspect=fixed;" parent="kLMd2919VFUMPng3lsWd-1" vertex="1">
          <mxGeometry x="160" y="40" width="20" height="20" as="geometry" />
        </mxCell>
        <mxCell id="kLMd2919VFUMPng3lsWd-18" style="edgeStyle=orthogonalEdgeStyle;rounded=0;orthogonalLoop=1;jettySize=auto;html=1;endArrow=none;endFill=0;exitX=0.467;exitY=0;exitDx=0;exitDy=0;exitPerimeter=0;" parent="kLMd2919VFUMPng3lsWd-1" source="kLMd2919VFUMPng3lsWd-16" edge="1">
          <mxGeometry relative="1" as="geometry">
            <mxPoint x="340" y="80" as="sourcePoint" />
            <mxPoint x="340" y="60" as="targetPoint" />
          </mxGeometry>
        </mxCell>
        <mxCell id="kLMd2919VFUMPng3lsWd-19" value="&lt;span style=&quot;font-size: 5px;&quot;&gt;HTTP&lt;/span&gt;" style="ellipse;whiteSpace=wrap;html=1;aspect=fixed;" parent="kLMd2919VFUMPng3lsWd-1" vertex="1">
          <mxGeometry x="330" y="40" width="20" height="20" as="geometry" />
        </mxCell>
        <mxCell id="kLMd2919VFUMPng3lsWd-22" style="edgeStyle=orthogonalEdgeStyle;rounded=0;orthogonalLoop=1;jettySize=auto;html=1;endArrow=none;endFill=0;exitX=0.469;exitY=-0.012;exitDx=0;exitDy=0;exitPerimeter=0;" parent="kLMd2919VFUMPng3lsWd-1" source="kLMd2919VFUMPng3lsWd-20" edge="1">
          <mxGeometry relative="1" as="geometry">
            <mxPoint x="510" y="80" as="sourcePoint" />
            <mxPoint x="510" y="60" as="targetPoint" />
          </mxGeometry>
        </mxCell>
        <mxCell id="kLMd2919VFUMPng3lsWd-23" value="&lt;font style=&quot;font-size: 5px;&quot;&gt;HTTP&lt;/font&gt;" style="ellipse;whiteSpace=wrap;html=1;aspect=fixed;" parent="kLMd2919VFUMPng3lsWd-1" vertex="1">
          <mxGeometry x="500" y="40" width="20" height="20" as="geometry" />
        </mxCell>
        <mxCell id="kLMd2919VFUMPng3lsWd-26" style="edgeStyle=orthogonalEdgeStyle;rounded=0;orthogonalLoop=1;jettySize=auto;html=1;endArrow=none;endFill=0;exitX=0.5;exitY=0;exitDx=0;exitDy=0;" parent="kLMd2919VFUMPng3lsWd-1" source="kLMd2919VFUMPng3lsWd-24" edge="1">
          <mxGeometry relative="1" as="geometry">
            <mxPoint x="680" y="80" as="sourcePoint" />
            <mxPoint x="680" y="60" as="targetPoint" />
            <Array as="points">
              <mxPoint x="680" y="180" />
            </Array>
          </mxGeometry>
        </mxCell>
        <mxCell id="kLMd2919VFUMPng3lsWd-27" value="&lt;span style=&quot;font-size: 5px;&quot;&gt;HTTP&lt;/span&gt;" style="ellipse;whiteSpace=wrap;html=1;aspect=fixed;" parent="kLMd2919VFUMPng3lsWd-1" vertex="1">
          <mxGeometry x="670" y="40" width="20" height="20" as="geometry" />
        </mxCell>
        <mxCell id="Rq60k0PkYch0VtDgxnlh-31" value="Нужен ли здесь брокер?" style="text;html=1;align=center;verticalAlign=middle;resizable=0;points=[];autosize=1;strokeColor=none;fillColor=none;" vertex="1" parent="kLMd2919VFUMPng3lsWd-1">
          <mxGeometry x="510" y="398" width="160" height="30" as="geometry" />
        </mxCell>
        <mxCell id="kLMd2919VFUMPng3lsWd-9" style="edgeStyle=orthogonalEdgeStyle;rounded=0;orthogonalLoop=1;jettySize=auto;html=1;entryX=0.5;entryY=0;entryDx=0;entryDy=0;" parent="1" source="kLMd2919VFUMPng3lsWd-3" target="kLMd2919VFUMPng3lsWd-7" edge="1">
          <mxGeometry relative="1" as="geometry" />
        </mxCell>
        <mxCell id="kLMd2919VFUMPng3lsWd-58" style="edgeStyle=orthogonalEdgeStyle;rounded=0;orthogonalLoop=1;jettySize=auto;html=1;entryX=0;entryY=0.5;entryDx=0;entryDy=0;curved=1;" parent="1" source="kLMd2919VFUMPng3lsWd-3" target="kLMd2919VFUMPng3lsWd-53" edge="1">
          <mxGeometry relative="1" as="geometry" />
        </mxCell>
        <mxCell id="kLMd2919VFUMPng3lsWd-3" value="SpaceMarines-Frontend" style="html=1;dropTarget=0;whiteSpace=wrap;" parent="1" vertex="1">
          <mxGeometry x="630" y="10" width="150" height="70" as="geometry" />
        </mxCell>
        <mxCell id="kLMd2919VFUMPng3lsWd-4" value="" style="shape=module;jettyWidth=8;jettyHeight=4;" parent="kLMd2919VFUMPng3lsWd-3" vertex="1">
          <mxGeometry x="1" width="20" height="20" relative="1" as="geometry">
            <mxPoint x="-27" y="7" as="offset" />
          </mxGeometry>
        </mxCell>
        <mxCell id="kLMd2919VFUMPng3lsWd-8" style="edgeStyle=orthogonalEdgeStyle;rounded=0;orthogonalLoop=1;jettySize=auto;html=1;entryX=0.5;entryY=1;entryDx=0;entryDy=0;endArrow=none;endFill=0;" parent="1" source="kLMd2919VFUMPng3lsWd-5" target="kLMd2919VFUMPng3lsWd-7" edge="1">
          <mxGeometry relative="1" as="geometry" />
        </mxCell>
        <mxCell id="kLMd2919VFUMPng3lsWd-29" style="edgeStyle=orthogonalEdgeStyle;rounded=0;orthogonalLoop=1;jettySize=auto;html=1;entryX=0.5;entryY=0;entryDx=0;entryDy=0;curved=1;" parent="1" source="kLMd2919VFUMPng3lsWd-5" target="kLMd2919VFUMPng3lsWd-13" edge="1">
          <mxGeometry relative="1" as="geometry" />
        </mxCell>
        <mxCell id="kLMd2919VFUMPng3lsWd-30" style="edgeStyle=orthogonalEdgeStyle;rounded=0;orthogonalLoop=1;jettySize=auto;html=1;entryX=0.5;entryY=0;entryDx=0;entryDy=0;curved=1;exitX=0.5;exitY=1;exitDx=0;exitDy=0;" parent="1" source="kLMd2919VFUMPng3lsWd-5" target="kLMd2919VFUMPng3lsWd-19" edge="1">
          <mxGeometry relative="1" as="geometry">
            <Array as="points">
              <mxPoint x="705" y="270" />
              <mxPoint x="620" y="270" />
            </Array>
          </mxGeometry>
        </mxCell>
        <mxCell id="kLMd2919VFUMPng3lsWd-31" style="edgeStyle=orthogonalEdgeStyle;rounded=0;orthogonalLoop=1;jettySize=auto;html=1;entryX=0.5;entryY=0;entryDx=0;entryDy=0;curved=1;exitX=0.5;exitY=1;exitDx=0;exitDy=0;" parent="1" source="kLMd2919VFUMPng3lsWd-5" target="kLMd2919VFUMPng3lsWd-23" edge="1">
          <mxGeometry relative="1" as="geometry">
            <Array as="points">
              <mxPoint x="705" y="270" />
              <mxPoint x="790" y="270" />
            </Array>
          </mxGeometry>
        </mxCell>
        <mxCell id="kLMd2919VFUMPng3lsWd-32" style="edgeStyle=orthogonalEdgeStyle;rounded=0;orthogonalLoop=1;jettySize=auto;html=1;entryX=0.5;entryY=0;entryDx=0;entryDy=0;curved=1;" parent="1" source="kLMd2919VFUMPng3lsWd-5" target="kLMd2919VFUMPng3lsWd-27" edge="1">
          <mxGeometry relative="1" as="geometry" />
        </mxCell>
        <mxCell id="kLMd2919VFUMPng3lsWd-5" value="game-context-gateway" style="html=1;dropTarget=0;whiteSpace=wrap;" parent="1" vertex="1">
          <mxGeometry x="635" y="170" width="140" height="80" as="geometry" />
        </mxCell>
        <mxCell id="kLMd2919VFUMPng3lsWd-6" value="" style="shape=module;jettyWidth=8;jettyHeight=4;" parent="kLMd2919VFUMPng3lsWd-5" vertex="1">
          <mxGeometry x="1" width="20" height="20" relative="1" as="geometry">
            <mxPoint x="-27" y="7" as="offset" />
          </mxGeometry>
        </mxCell>
        <mxCell id="kLMd2919VFUMPng3lsWd-7" value="&lt;span style=&quot;font-size: 5px;&quot;&gt;HTTP&lt;/span&gt;" style="ellipse;whiteSpace=wrap;html=1;aspect=fixed;" parent="1" vertex="1">
          <mxGeometry x="695" y="120" width="20" height="20" as="geometry" />
        </mxCell>
        <mxCell id="kLMd2919VFUMPng3lsWd-51" value="CDN" style="ellipse;shape=cloud;whiteSpace=wrap;html=1;" parent="1" vertex="1">
          <mxGeometry x="1110" y="30" width="290" height="180" as="geometry" />
        </mxCell>
        <mxCell id="kLMd2919VFUMPng3lsWd-53" value="&lt;span style=&quot;font-size: 5px;&quot;&gt;HTTP&lt;/span&gt;" style="ellipse;whiteSpace=wrap;html=1;aspect=fixed;" parent="1" vertex="1">
          <mxGeometry x="1060" y="120" width="20" height="20" as="geometry" />
        </mxCell>
        <mxCell id="kLMd2919VFUMPng3lsWd-57" style="edgeStyle=orthogonalEdgeStyle;rounded=0;orthogonalLoop=1;jettySize=auto;html=1;entryX=0.157;entryY=0.554;entryDx=0;entryDy=0;entryPerimeter=0;endArrow=none;endFill=0;" parent="1" source="kLMd2919VFUMPng3lsWd-53" target="kLMd2919VFUMPng3lsWd-51" edge="1">
          <mxGeometry relative="1" as="geometry">
            <mxPoint x="1150.02" y="129.98000000000002" as="targetPoint" />
          </mxGeometry>
        </mxCell>
        <mxCell id="kLMd2919VFUMPng3lsWd-65" style="edgeStyle=orthogonalEdgeStyle;rounded=0;orthogonalLoop=1;jettySize=auto;html=1;entryX=0.5;entryY=1;entryDx=0;entryDy=0;endArrow=none;endFill=0;" parent="1" source="kLMd2919VFUMPng3lsWd-59" target="kLMd2919VFUMPng3lsWd-61" edge="1">
          <mxGeometry relative="1" as="geometry" />
        </mxCell>
        <mxCell id="kLMd2919VFUMPng3lsWd-59" value="S3" style="shape=datastore;whiteSpace=wrap;html=1;" parent="1" vertex="1">
          <mxGeometry x="1225" y="380" width="60" height="60" as="geometry" />
        </mxCell>
        <mxCell id="kLMd2919VFUMPng3lsWd-61" value="&lt;span style=&quot;font-size: 5px;&quot;&gt;HTTP&lt;/span&gt;" style="ellipse;whiteSpace=wrap;html=1;aspect=fixed;" parent="1" vertex="1">
          <mxGeometry x="1245" y="340" width="20" height="20" as="geometry" />
        </mxCell>
        <mxCell id="kLMd2919VFUMPng3lsWd-64" value="Admin-Context" style="swimlane;whiteSpace=wrap;html=1;" parent="1" vertex="1">
          <mxGeometry x="1410" y="320" width="530" height="400" as="geometry">
            <mxRectangle x="1390" y="290" width="120" height="30" as="alternateBounds" />
          </mxGeometry>
        </mxCell>
        <mxCell id="kLMd2919VFUMPng3lsWd-69" value="content-admin-service" style="html=1;dropTarget=0;whiteSpace=wrap;" parent="kLMd2919VFUMPng3lsWd-64" vertex="1">
          <mxGeometry x="70" y="120" width="150" height="70" as="geometry" />
        </mxCell>
        <mxCell id="kLMd2919VFUMPng3lsWd-70" value="" style="shape=module;jettyWidth=8;jettyHeight=4;" parent="kLMd2919VFUMPng3lsWd-69" vertex="1">
          <mxGeometry x="1" width="20" height="20" relative="1" as="geometry">
            <mxPoint x="-27" y="7" as="offset" />
          </mxGeometry>
        </mxCell>
        <mxCell id="Rq60k0PkYch0VtDgxnlh-4" value="&lt;font style=&quot;font-size: 5px;&quot;&gt;HTTP&lt;/font&gt;" style="ellipse;whiteSpace=wrap;html=1;aspect=fixed;" vertex="1" parent="kLMd2919VFUMPng3lsWd-64">
          <mxGeometry x="270" y="145" width="20" height="20" as="geometry" />
        </mxCell>
        <mxCell id="Rq60k0PkYch0VtDgxnlh-3" style="edgeStyle=orthogonalEdgeStyle;rounded=0;orthogonalLoop=1;jettySize=auto;html=1;endArrow=none;endFill=0;entryX=0;entryY=0.5;entryDx=0;entryDy=0;exitX=1;exitY=0.5;exitDx=0;exitDy=0;" edge="1" parent="kLMd2919VFUMPng3lsWd-64" source="kLMd2919VFUMPng3lsWd-69" target="Rq60k0PkYch0VtDgxnlh-4">
          <mxGeometry relative="1" as="geometry">
            <mxPoint x="180" y="120" as="sourcePoint" />
            <mxPoint x="180" y="70" as="targetPoint" />
          </mxGeometry>
        </mxCell>
        <mxCell id="Rq60k0PkYch0VtDgxnlh-6" value="admin-service" style="html=1;dropTarget=0;whiteSpace=wrap;" vertex="1" parent="kLMd2919VFUMPng3lsWd-64">
          <mxGeometry x="70" y="220" width="150" height="70" as="geometry" />
        </mxCell>
        <mxCell id="Rq60k0PkYch0VtDgxnlh-7" value="" style="shape=module;jettyWidth=8;jettyHeight=4;" vertex="1" parent="Rq60k0PkYch0VtDgxnlh-6">
          <mxGeometry x="1" width="20" height="20" relative="1" as="geometry">
            <mxPoint x="-27" y="7" as="offset" />
          </mxGeometry>
        </mxCell>
        <mxCell id="Rq60k0PkYch0VtDgxnlh-8" value="&lt;font style=&quot;font-size: 5px;&quot;&gt;HTTP&lt;/font&gt;" style="ellipse;whiteSpace=wrap;html=1;aspect=fixed;" vertex="1" parent="kLMd2919VFUMPng3lsWd-64">
          <mxGeometry x="270" y="245" width="20" height="20" as="geometry" />
        </mxCell>
        <mxCell id="Rq60k0PkYch0VtDgxnlh-9" style="edgeStyle=orthogonalEdgeStyle;rounded=0;orthogonalLoop=1;jettySize=auto;html=1;endArrow=none;endFill=0;entryX=0;entryY=0.5;entryDx=0;entryDy=0;exitX=1;exitY=0.5;exitDx=0;exitDy=0;" edge="1" parent="kLMd2919VFUMPng3lsWd-64" source="Rq60k0PkYch0VtDgxnlh-6" target="Rq60k0PkYch0VtDgxnlh-8">
          <mxGeometry relative="1" as="geometry">
            <mxPoint x="180" y="220" as="sourcePoint" />
            <mxPoint x="180" y="170" as="targetPoint" />
          </mxGeometry>
        </mxCell>
        <mxCell id="Rq60k0PkYch0VtDgxnlh-30" value="Админская база?" style="text;html=1;align=center;verticalAlign=middle;resizable=0;points=[];autosize=1;strokeColor=none;fillColor=none;" vertex="1" parent="kLMd2919VFUMPng3lsWd-64">
          <mxGeometry x="80" y="300" width="120" height="30" as="geometry" />
        </mxCell>
        <mxCell id="kLMd2919VFUMPng3lsWd-66" style="edgeStyle=orthogonalEdgeStyle;rounded=0;orthogonalLoop=1;jettySize=auto;html=1;entryX=0.499;entryY=0.949;entryDx=0;entryDy=0;entryPerimeter=0;endArrow=none;endFill=0;" parent="1" source="kLMd2919VFUMPng3lsWd-61" target="kLMd2919VFUMPng3lsWd-51" edge="1">
          <mxGeometry relative="1" as="geometry" />
        </mxCell>
        <mxCell id="Rq60k0PkYch0VtDgxnlh-5" style="edgeStyle=orthogonalEdgeStyle;rounded=0;orthogonalLoop=1;jettySize=auto;html=1;entryX=0.5;entryY=0;entryDx=0;entryDy=0;exitX=0.5;exitY=1;exitDx=0;exitDy=0;curved=1;" edge="1" parent="1" source="kLMd2919VFUMPng3lsWd-67" target="Rq60k0PkYch0VtDgxnlh-13">
          <mxGeometry relative="1" as="geometry" />
        </mxCell>
        <mxCell id="kLMd2919VFUMPng3lsWd-67" value="Admin-Frontend" style="html=1;dropTarget=0;whiteSpace=wrap;" parent="1" vertex="1">
          <mxGeometry x="1580" y="10" width="150" height="70" as="geometry" />
        </mxCell>
        <mxCell id="kLMd2919VFUMPng3lsWd-68" value="" style="shape=module;jettyWidth=8;jettyHeight=4;" parent="kLMd2919VFUMPng3lsWd-67" vertex="1">
          <mxGeometry x="1" width="20" height="20" relative="1" as="geometry">
            <mxPoint x="-27" y="7" as="offset" />
          </mxGeometry>
        </mxCell>
        <mxCell id="kLMd2919VFUMPng3lsWd-73" style="edgeStyle=orthogonalEdgeStyle;rounded=0;orthogonalLoop=1;jettySize=auto;html=1;entryX=1;entryY=0.5;entryDx=0;entryDy=0;exitX=-0.014;exitY=0.429;exitDx=0;exitDy=0;exitPerimeter=0;curved=1;" parent="1" source="kLMd2919VFUMPng3lsWd-69" target="kLMd2919VFUMPng3lsWd-61" edge="1">
          <mxGeometry relative="1" as="geometry" />
        </mxCell>
        <mxCell id="kLMd2919VFUMPng3lsWd-42" style="edgeStyle=orthogonalEdgeStyle;rounded=0;orthogonalLoop=1;jettySize=auto;html=1;entryX=0.5;entryY=0;entryDx=0;entryDy=0;curved=1;exitX=0.5;exitY=1;exitDx=0;exitDy=0;" parent="1" source="kLMd2919VFUMPng3lsWd-10" target="kLMd2919VFUMPng3lsWd-37" edge="1">
          <mxGeometry relative="1" as="geometry" />
        </mxCell>
        <mxCell id="kLMd2919VFUMPng3lsWd-10" value="spacemarines-service" style="html=1;dropTarget=0;whiteSpace=wrap;" parent="1" vertex="1">
          <mxGeometry x="380" y="470" width="150" height="70" as="geometry" />
        </mxCell>
        <mxCell id="kLMd2919VFUMPng3lsWd-11" value="" style="shape=module;jettyWidth=8;jettyHeight=4;" parent="kLMd2919VFUMPng3lsWd-10" vertex="1">
          <mxGeometry x="1" width="20" height="20" relative="1" as="geometry">
            <mxPoint x="-27" y="7" as="offset" />
          </mxGeometry>
        </mxCell>
        <mxCell id="kLMd2919VFUMPng3lsWd-44" style="edgeStyle=orthogonalEdgeStyle;rounded=0;orthogonalLoop=1;jettySize=auto;html=1;entryX=0.5;entryY=0;entryDx=0;entryDy=0;curved=1;" parent="1" source="kLMd2919VFUMPng3lsWd-16" target="kLMd2919VFUMPng3lsWd-37" edge="1">
          <mxGeometry relative="1" as="geometry" />
        </mxCell>
        <mxCell id="kLMd2919VFUMPng3lsWd-16" value="starships-service" style="html=1;dropTarget=0;whiteSpace=wrap;" parent="1" vertex="1">
          <mxGeometry x="550" y="470" width="150" height="70" as="geometry" />
        </mxCell>
        <mxCell id="kLMd2919VFUMPng3lsWd-17" value="" style="shape=module;jettyWidth=8;jettyHeight=4;" parent="kLMd2919VFUMPng3lsWd-16" vertex="1">
          <mxGeometry x="1" width="20" height="20" relative="1" as="geometry">
            <mxPoint x="-27" y="7" as="offset" />
          </mxGeometry>
        </mxCell>
        <mxCell id="kLMd2919VFUMPng3lsWd-45" style="edgeStyle=orthogonalEdgeStyle;rounded=0;orthogonalLoop=1;jettySize=auto;html=1;entryX=0.5;entryY=0;entryDx=0;entryDy=0;curved=1;" parent="1" source="kLMd2919VFUMPng3lsWd-20" target="kLMd2919VFUMPng3lsWd-39" edge="1">
          <mxGeometry relative="1" as="geometry">
            <Array as="points">
              <mxPoint x="730" y="550" />
              <mxPoint x="730" y="550" />
            </Array>
          </mxGeometry>
        </mxCell>
        <mxCell id="kLMd2919VFUMPng3lsWd-131" style="edgeStyle=orthogonalEdgeStyle;rounded=0;orthogonalLoop=1;jettySize=auto;html=1;entryX=0;entryY=0.5;entryDx=0;entryDy=0;curved=1;exitX=0.75;exitY=0;exitDx=0;exitDy=0;" parent="1" source="kLMd2919VFUMPng3lsWd-20" target="kLMd2919VFUMPng3lsWd-61" edge="1">
          <mxGeometry relative="1" as="geometry">
            <Array as="points">
              <mxPoint x="833" y="350" />
            </Array>
          </mxGeometry>
        </mxCell>
        <mxCell id="kLMd2919VFUMPng3lsWd-20" value="user-service" style="html=1;dropTarget=0;whiteSpace=wrap;" parent="1" vertex="1">
          <mxGeometry x="720" y="470" width="150" height="70" as="geometry" />
        </mxCell>
        <mxCell id="kLMd2919VFUMPng3lsWd-21" value="" style="shape=module;jettyWidth=8;jettyHeight=4;" parent="kLMd2919VFUMPng3lsWd-20" vertex="1">
          <mxGeometry x="1" width="20" height="20" relative="1" as="geometry">
            <mxPoint x="-27" y="7" as="offset" />
          </mxGeometry>
        </mxCell>
        <mxCell id="kLMd2919VFUMPng3lsWd-46" style="edgeStyle=orthogonalEdgeStyle;rounded=0;orthogonalLoop=1;jettySize=auto;html=1;entryX=0.5;entryY=0;entryDx=0;entryDy=0;curved=1;exitX=0.801;exitY=0.996;exitDx=0;exitDy=0;exitPerimeter=0;" parent="1" source="kLMd2919VFUMPng3lsWd-24" target="kLMd2919VFUMPng3lsWd-41" edge="1">
          <mxGeometry relative="1" as="geometry">
            <Array as="points" />
          </mxGeometry>
        </mxCell>
        <mxCell id="kLMd2919VFUMPng3lsWd-49" style="edgeStyle=orthogonalEdgeStyle;rounded=0;orthogonalLoop=1;jettySize=auto;html=1;entryX=1;entryY=0.5;entryDx=0;entryDy=0;curved=1;exitX=0.372;exitY=1.005;exitDx=0;exitDy=0;exitPerimeter=0;" parent="1" source="kLMd2919VFUMPng3lsWd-24" target="kLMd2919VFUMPng3lsWd-15" edge="1">
          <mxGeometry relative="1" as="geometry" />
        </mxCell>
        <mxCell id="kLMd2919VFUMPng3lsWd-24" value="campaign-service" style="html=1;dropTarget=0;whiteSpace=wrap;" parent="1" vertex="1">
          <mxGeometry x="890" y="470" width="150" height="70" as="geometry" />
        </mxCell>
        <mxCell id="kLMd2919VFUMPng3lsWd-25" value="" style="shape=module;jettyWidth=8;jettyHeight=4;" parent="kLMd2919VFUMPng3lsWd-24" vertex="1">
          <mxGeometry x="1" width="20" height="20" relative="1" as="geometry">
            <mxPoint x="-27" y="7" as="offset" />
          </mxGeometry>
        </mxCell>
        <mxCell id="kLMd2919VFUMPng3lsWd-33" value="&lt;span style=&quot;font-size: 10px;&quot;&gt;PostgresQL&lt;/span&gt;" style="shape=datastore;whiteSpace=wrap;html=1;" parent="1" vertex="1">
          <mxGeometry x="515" y="640" width="60" height="60" as="geometry" />
        </mxCell>
        <mxCell id="kLMd2919VFUMPng3lsWd-34" value="&lt;span style=&quot;font-size: 10px;&quot;&gt;PostgresQL&lt;/span&gt;" style="shape=datastore;whiteSpace=wrap;html=1;" parent="1" vertex="1">
          <mxGeometry x="700" y="700" width="60" height="60" as="geometry" />
        </mxCell>
        <mxCell id="kLMd2919VFUMPng3lsWd-35" value="&lt;span style=&quot;font-size: 10px;&quot;&gt;PostgresQL&lt;/span&gt;" style="shape=datastore;whiteSpace=wrap;html=1;" parent="1" vertex="1">
          <mxGeometry x="980" y="700" width="60" height="60" as="geometry" />
        </mxCell>
        <mxCell id="kLMd2919VFUMPng3lsWd-36" style="edgeStyle=orthogonalEdgeStyle;rounded=0;orthogonalLoop=1;jettySize=auto;html=1;endArrow=none;endFill=0;" parent="1" edge="1">
          <mxGeometry relative="1" as="geometry">
            <mxPoint x="545" y="640" as="sourcePoint" />
            <mxPoint x="545" y="620" as="targetPoint" />
          </mxGeometry>
        </mxCell>
        <mxCell id="kLMd2919VFUMPng3lsWd-37" value="" style="ellipse;whiteSpace=wrap;html=1;aspect=fixed;" parent="1" vertex="1">
          <mxGeometry x="535" y="600" width="20" height="20" as="geometry" />
        </mxCell>
        <mxCell id="kLMd2919VFUMPng3lsWd-38" style="edgeStyle=orthogonalEdgeStyle;rounded=0;orthogonalLoop=1;jettySize=auto;html=1;endArrow=none;endFill=0;" parent="1" edge="1">
          <mxGeometry relative="1" as="geometry">
            <mxPoint x="730" y="700" as="sourcePoint" />
            <mxPoint x="730" y="680" as="targetPoint" />
          </mxGeometry>
        </mxCell>
        <mxCell id="kLMd2919VFUMPng3lsWd-39" value="" style="ellipse;whiteSpace=wrap;html=1;aspect=fixed;" parent="1" vertex="1">
          <mxGeometry x="720" y="660" width="20" height="20" as="geometry" />
        </mxCell>
        <mxCell id="kLMd2919VFUMPng3lsWd-40" style="edgeStyle=orthogonalEdgeStyle;rounded=0;orthogonalLoop=1;jettySize=auto;html=1;endArrow=none;endFill=0;" parent="1" edge="1">
          <mxGeometry relative="1" as="geometry">
            <mxPoint x="1010" y="700" as="sourcePoint" />
            <mxPoint x="1010" y="680" as="targetPoint" />
          </mxGeometry>
        </mxCell>
        <mxCell id="kLMd2919VFUMPng3lsWd-41" value="" style="ellipse;whiteSpace=wrap;html=1;aspect=fixed;" parent="1" vertex="1">
          <mxGeometry x="1000" y="660" width="20" height="20" as="geometry" />
        </mxCell>
        <mxCell id="kLMd2919VFUMPng3lsWd-47" value="" style="shape=cylinder3;whiteSpace=wrap;html=1;boundedLbl=1;backgroundOutline=1;size=15;rotation=-90;" parent="1" vertex="1">
          <mxGeometry x="845" y="600" width="50" height="105" as="geometry" />
        </mxCell>
        <mxCell id="kLMd2919VFUMPng3lsWd-48" value="Broker" style="text;html=1;align=center;verticalAlign=middle;whiteSpace=wrap;rounded=0;" parent="1" vertex="1">
          <mxGeometry x="845" y="637.5" width="60" height="30" as="geometry" />
        </mxCell>
        <mxCell id="kLMd2919VFUMPng3lsWd-14" style="edgeStyle=orthogonalEdgeStyle;rounded=0;orthogonalLoop=1;jettySize=auto;html=1;endArrow=none;endFill=0;" parent="1" edge="1">
          <mxGeometry relative="1" as="geometry">
            <mxPoint x="875" y="630" as="sourcePoint" />
            <mxPoint x="875" y="610" as="targetPoint" />
          </mxGeometry>
        </mxCell>
        <mxCell id="kLMd2919VFUMPng3lsWd-15" value="" style="ellipse;whiteSpace=wrap;html=1;aspect=fixed;" parent="1" vertex="1">
          <mxGeometry x="865" y="590" width="20" height="20" as="geometry" />
        </mxCell>
        <mxCell id="kLMd2919VFUMPng3lsWd-50" style="edgeStyle=orthogonalEdgeStyle;rounded=0;orthogonalLoop=1;jettySize=auto;html=1;entryX=0.567;entryY=1;entryDx=0;entryDy=0;entryPerimeter=0;curved=1;exitX=0;exitY=0.5;exitDx=0;exitDy=0;" parent="1" source="kLMd2919VFUMPng3lsWd-15" target="kLMd2919VFUMPng3lsWd-20" edge="1">
          <mxGeometry relative="1" as="geometry" />
        </mxCell>
        <mxCell id="kLMd2919VFUMPng3lsWd-81" value="DBInteface" style="text;html=1;align=center;verticalAlign=middle;whiteSpace=wrap;rounded=0;" parent="1" vertex="1">
          <mxGeometry x="1025" y="655" width="60" height="30" as="geometry" />
        </mxCell>
        <mxCell id="kLMd2919VFUMPng3lsWd-82" value="DBInteface" style="text;html=1;align=center;verticalAlign=middle;whiteSpace=wrap;rounded=0;" parent="1" vertex="1">
          <mxGeometry x="745" y="660" width="60" height="30" as="geometry" />
        </mxCell>
        <mxCell id="kLMd2919VFUMPng3lsWd-125" value="DBInteface" style="text;html=1;align=center;verticalAlign=middle;whiteSpace=wrap;rounded=0;" parent="1" vertex="1">
          <mxGeometry x="565" y="595" width="60" height="30" as="geometry" />
        </mxCell>
        <mxCell id="kLMd2919VFUMPng3lsWd-126" value="Broker&lt;span style=&quot;background-color: initial;&quot;&gt;Interface&lt;/span&gt;" style="text;html=1;align=center;verticalAlign=middle;whiteSpace=wrap;rounded=0;" parent="1" vertex="1">
          <mxGeometry x="845" y="560" width="60" height="30" as="geometry" />
        </mxCell>
        <mxCell id="kLMd2919VFUMPng3lsWd-130" style="edgeStyle=orthogonalEdgeStyle;rounded=0;orthogonalLoop=1;jettySize=auto;html=1;entryX=0.473;entryY=0.009;entryDx=0;entryDy=0;entryPerimeter=0;endArrow=none;endFill=0;" parent="1" source="kLMd2919VFUMPng3lsWd-13" target="kLMd2919VFUMPng3lsWd-10" edge="1">
          <mxGeometry relative="1" as="geometry">
            <Array as="points">
              <mxPoint x="450" y="471" />
            </Array>
          </mxGeometry>
        </mxCell>
        <mxCell id="Rq60k0PkYch0VtDgxnlh-16" style="rounded=0;orthogonalLoop=1;jettySize=auto;html=1;entryX=1;entryY=0.5;entryDx=0;entryDy=0;" edge="1" parent="1" source="Rq60k0PkYch0VtDgxnlh-10" target="kLMd2919VFUMPng3lsWd-7">
          <mxGeometry relative="1" as="geometry">
            <mxPoint x="780" y="210" as="targetPoint" />
            <Array as="points">
              <mxPoint x="1150" y="210" />
            </Array>
          </mxGeometry>
        </mxCell>
        <mxCell id="Rq60k0PkYch0VtDgxnlh-17" style="edgeStyle=orthogonalEdgeStyle;rounded=0;orthogonalLoop=1;jettySize=auto;html=1;entryX=1;entryY=0.5;entryDx=0;entryDy=0;curved=1;" edge="1" parent="1" source="Rq60k0PkYch0VtDgxnlh-10" target="Rq60k0PkYch0VtDgxnlh-4">
          <mxGeometry relative="1" as="geometry" />
        </mxCell>
        <mxCell id="Rq60k0PkYch0VtDgxnlh-18" style="edgeStyle=orthogonalEdgeStyle;rounded=0;orthogonalLoop=1;jettySize=auto;html=1;entryX=1;entryY=0.5;entryDx=0;entryDy=0;curved=1;" edge="1" parent="1" source="Rq60k0PkYch0VtDgxnlh-10" target="Rq60k0PkYch0VtDgxnlh-8">
          <mxGeometry relative="1" as="geometry" />
        </mxCell>
        <mxCell id="Rq60k0PkYch0VtDgxnlh-10" value="admin-gateway" style="html=1;dropTarget=0;whiteSpace=wrap;" vertex="1" parent="1">
          <mxGeometry x="1590" y="190" width="140" height="80" as="geometry" />
        </mxCell>
        <mxCell id="Rq60k0PkYch0VtDgxnlh-11" value="" style="shape=module;jettyWidth=8;jettyHeight=4;" vertex="1" parent="Rq60k0PkYch0VtDgxnlh-10">
          <mxGeometry x="1" width="20" height="20" relative="1" as="geometry">
            <mxPoint x="-27" y="7" as="offset" />
          </mxGeometry>
        </mxCell>
        <mxCell id="Rq60k0PkYch0VtDgxnlh-12" style="edgeStyle=orthogonalEdgeStyle;rounded=0;orthogonalLoop=1;jettySize=auto;html=1;entryX=0.5;entryY=1;entryDx=0;entryDy=0;endArrow=none;endFill=0;" edge="1" parent="1" target="Rq60k0PkYch0VtDgxnlh-13">
          <mxGeometry relative="1" as="geometry">
            <mxPoint x="1655" y="190" as="sourcePoint" />
          </mxGeometry>
        </mxCell>
        <mxCell id="Rq60k0PkYch0VtDgxnlh-13" value="&lt;span style=&quot;font-size: 5px;&quot;&gt;HTTP&lt;/span&gt;" style="ellipse;whiteSpace=wrap;html=1;aspect=fixed;" vertex="1" parent="1">
          <mxGeometry x="1645" y="140" width="20" height="20" as="geometry" />
        </mxCell>
        <mxCell id="Rq60k0PkYch0VtDgxnlh-22" style="edgeStyle=orthogonalEdgeStyle;rounded=0;orthogonalLoop=1;jettySize=auto;html=1;entryX=1;entryY=0.5;entryDx=0;entryDy=0;curved=1;" edge="1" parent="1" source="Rq60k0PkYch0VtDgxnlh-6" target="kLMd2919VFUMPng3lsWd-7">
          <mxGeometry relative="1" as="geometry">
            <mxPoint x="800" y="180" as="targetPoint" />
          </mxGeometry>
        </mxCell>
      </root>
    </mxGraphModel>
  </diagram>
</mxfile>
